<svg xmlns="http://www.w3.org/2000/svg" width="940" height="430" viewBox="0 0 940 430" font-family="-apple-system,BlinkMacSystemFont,'Segoe UI','PingFang SC','Microsoft YaHei',sans-serif"><defs><linearGradient id="mvFill" x1="0" y1="0" x2="0" y2="1"><stop offset="0%" stop-color="#3b82f6" stop-opacity="0.28"/><stop offset="100%" stop-color="#3b82f6" stop-opacity="0.02"/></linearGradient></defs><rect x="0" y="0" width="940" height="430" fill="#ffffff"/><text x="70" y="24" font-size="15" font-weight="600" fill="#0f172a">定投累计投入 vs 当前市值</text><line x1="70" y1="40" x2="86" y2="40" stroke="#94a3b8" stroke-width="2.5" stroke-dasharray="5 4"/><text x="92" y="44" font-size="12" fill="#64748b">累计投入</text><line x1="170" y1="40" x2="186" y2="40" stroke="#2563eb" stroke-width="2.5"/><text x="192" y="44" font-size="12" fill="#64748b">当前市值</text><line x1="70" y1="378.0" x2="914" y2="378.0" stroke="#e2e8f0" stroke-width="1"/><text x="60" y="382.0" text-anchor="end" font-size="11" fill="#94a3b8">0.00</text><line x1="70" y1="313.2" x2="914" y2="313.2" stroke="#e2e8f0" stroke-width="1"/><text x="60" y="317.2" text-anchor="end" font-size="11" fill="#94a3b8">109.95</text><line x1="70" y1="248.4" x2="914" y2="248.4" stroke="#e2e8f0" stroke-width="1"/><text x="60" y="252.4" text-anchor="end" font-size="11" fill="#94a3b8">219.91</text><line x1="70" y1="183.6" x2="914" y2="183.6" stroke="#e2e8f0" stroke-width="1"/><text x="60" y="187.6" text-anchor="end" font-size="11" fill="#94a3b8">329.86</text><line x1="70" y1="118.8" x2="914" y2="118.8" stroke="#e2e8f0" stroke-width="1"/><text x="60" y="122.8" text-anchor="end" font-size="11" fill="#94a3b8">439.81</text><line x1="70" y1="54.0" x2="914" y2="54.0" stroke="#e2e8f0" stroke-width="1"/><text x="60" y="58.0" text-anchor="end" font-size="11" fill="#94a3b8">549.76</text><path d="M70.0,378.0 L70.0,366.2 L105.2,354.5 L140.3,342.7 L175.5,331.2 L210.7,319.2 L245.8,307.6 L281.0,295.6 L316.2,283.9 L351.3,271.4 L386.5,259.9 L421.7,248.4 L456.8,237.5 L492.0,225.1 L527.2,211.8 L562.3,200.6 L597.5,189.8 L632.7,178.9 L667.8,168.2 L703.0,154.9 L738.2,144.2 L773.3,133.5 L808.5,122.8 L843.7,108.5 L878.8,96.5 L914.0,88.7 L914.0,378.0 Z" fill="url(#mvFill)"/><path d="M70.0,366.2 L105.2,354.4 L140.3,342.7 L175.5,330.9 L210.7,319.1 L245.8,307.3 L281.0,295.5 L316.2,283.8 L351.3,272.0 L386.5,260.2 L421.7,248.4 L456.8,236.6 L492.0,224.8 L527.2,213.1 L562.3,201.3 L597.5,189.5 L632.7,177.7 L667.8,165.9 L703.0,154.2 L738.2,142.4 L773.3,130.6 L808.5,118.8 L843.7,107.0 L878.8,95.3 L914.0,89.4" fill="none" stroke="#94a3b8" stroke-width="2.5" stroke-dasharray="5 4" stroke-linejoin="round"/><path d="M70.0,366.2 L105.2,354.5 L140.3,342.7 L175.5,331.2 L210.7,319.2 L245.8,307.6 L281.0,295.6 L316.2,283.9 L351.3,271.4 L386.5,259.9 L421.7,248.4 L456.8,237.5 L492.0,225.1 L527.2,211.8 L562.3,200.6 L597.5,189.8 L632.7,178.9 L667.8,168.2 L703.0,154.9 L738.2,144.2 L773.3,133.5 L808.5,122.8 L843.7,108.5 L878.8,96.5 L914.0,88.7" fill="none" stroke="#2563eb" stroke-width="2.8" stroke-linejoin="round"/><circle cx="914.0" cy="89.4" r="4" fill="#ffffff" stroke="#94a3b8" stroke-width="2.5"/><circle cx="914.0" cy="88.7" r="4.5" fill="#2563eb" stroke="#ffffff" stroke-width="2"/><text x="70.0" y="400.0" text-anchor="middle" font-size="11" fill="#94a3b8">08-17</text><text x="210.7" y="400.0" text-anchor="middle" font-size="11" fill="#94a3b8">08-21</text><text x="351.3" y="400.0" text-anchor="middle" font-size="11" fill="#94a3b8">08-27</text><text x="492.0" y="400.0" text-anchor="middle" font-size="11" fill="#94a3b8">09-02</text><text x="632.7" y="400.0" text-anchor="middle" font-size="11" fill="#94a3b8">09-09</text><text x="773.3" y="400.0" text-anchor="middle" font-size="11" fill="#94a3b8">09-15</text><text x="914.0" y="400.0" text-anchor="middle" font-size="11" fill="#94a3b8">09-21</text><line x1="70" y1="378.0" x2="914" y2="378.0" stroke="#cbd5e1" stroke-width="1"/></svg>